# xmcd
#
# Track frame offsets: 
#        150
#        14625
#        34534
#        56091
#        57679
#        82501
#        102629
#        105964
#        127345
#        144182
#        162517
#        182678
#
# Disc length: 2740 seconds
#
# Revision: 3
# Processed by: cddbd v1.5.2PL0 Copyright (c) Steve Scherf et al.
# Submitted via: ExactAudioCopy v0.99pb5
#
DISCID=a10ab20c
DTITLE=盧廣仲 - 100種生活
DYEAR=2008
DGENRE=Pop
TTITLE0=早安,晨之美
TTITLE1=Que te pasa? 你在幹嘛?
TTITLE2=100種生活
TTITLE3=PAZ
TTITLE4=好想要揮霍
TTITLE5=別殺我
TTITLE6=Boring
TTITLE7=我愛你
TTITLE8=無敵鐵金剛
TTITLE9=校園美女2008
TTITLE10=寂寞考
TTITLE11=破氣球 (When I fall in love...)
EXTD=YEAR: 2008
EXTT0=
EXTT1=
EXTT2=
EXTT3=
EXTT4=
EXTT5=
EXTT6=
EXTT7=
EXTT8=
EXTT9=
EXTT10=
EXTT11=
PLAYORDER=
